<?xml version="1.0" encoding="utf-8"?>
<!-- Generator: Adobe Illustrator 23.0.1, SVG Export Plug-In . SVG Version: 6.00 Build 0)  -->
<svg version="1.1" id="Layer_1" xmlns="http://www.w3.org/2000/svg" xmlns:xlink="http://www.w3.org/1999/xlink" x="0px" y="0px"
	 viewBox="0 0 500 111.8" style="enable-background:new 0 0 500 111.8;" xml:space="preserve">
<style type="text/css">
	.st0{fill:#445F55;}
</style>
<g>
	<path class="st0" d="M67.7,62.3c-2.5,9.1-7.3,16.7-20,16.7H47c-16,0-33.3-12.4-33.3-34.9c0-20,11.6-33.7,32.1-33.7
		c14,0,18.8,5.2,20.8,12.2l1.1,4h5.1c0-2.4,0.3-15.1,0.3-20.7l-0.4-0.2C72,6.1,71,6.6,69.4,6.6c-5.9,0-15.6-1.7-24.8-1.7
		C16,4.9,0,24.4,0,45.5C0,70,19.8,85.2,42.2,85.2c14.9,0,27.1-4.5,30-5.8L74.1,57H69L67.7,62.3z"/>
	<path class="st0" d="M105.6,31.3c-15.1,0-25.9,12-25.9,27c0,14.9,10.8,27,25.9,27c15,0,25.9-12.1,25.9-27
		C131.5,43.3,120.6,31.3,105.6,31.3z M105.6,80.6c-7.9,0-13.2-8.3-13.2-22.3S97.7,36,105.6,36s13.2,8.3,13.2,22.3
		S113.5,80.6,105.6,80.6z"/>
	<path class="st0" d="M183.4,68.9l-2.6-1.6c-2.4,4.6-8.1,9.1-15.3,9.1c-10.2,0-17.5-8.6-17.5-20.2c0-1,0.1-2.2,0.2-3.5l20.5,0.7
		c7.5,0.3,11.8-0.1,14.5-0.9c0.2-12.4-7.9-21-21-21c-16.2,0-25.4,13.8-25.4,27.4c0,14.3,9,26.5,24.3,26.5
		C171.6,85.2,180.6,78.6,183.4,68.9z M161.5,36c7.3,0,9.9,5.7,9.8,12l-22.6,0.3C149.7,41.9,154.6,36,161.5,36z"/>
	<path class="st0" d="M266.1,74.4v-43c-4.2,0.5-9.8,1.6-14.1,2.9h-10.3l2.5-8.3c4.4-14.2,8.3-20.5,13.2-20.5c5.2,0,4.5,7.3,9.1,7.3
		c3.4,0,5.9-3.6,5.9-6.3c0-2.3-4-6.5-11.7-6.5c-5.1,0-9.7,1.6-13.6,5c-2.1-1.9-6.9-4.2-13.8-4.2c-11.7,0-24,8.8-30.9,29.8l-1.2,3.6
		h-8.8l-1.6,4.8h9.1l-12.4,43.2c-4.5,15.4-8.1,24-12.8,24c-4.5,0-5-6.4-9-6.4c-3.1,0-5.2,2.6-5.2,5.1c0,3.5,3.3,6.8,10.2,6.8
		c16.3,0,25.4-20.9,30.9-38.8L211.7,39h16.6l-10.1,34.5c-5.3,18-10.9,26.8-18.5,25.7c-0.4,0.9-2.1,3.4-2.5,4.1
		c1.2,0.3,2.6,0.4,4.3,0.4c16.2,0,25.5-20.9,31-38.8l7.8-26h8.4l5.9,1.6v33.7c0,2.6-1,4.5-3.9,4.8l-3.4,0.4v4H273v-4l-3.4-0.4
		C267,78.9,266.1,77,266.1,74.4z M231.1,30.6l-1.2,3.6h-16.7l2.5-8.3c4.3-14.2,9.6-19.6,14.9-19.6c4.6,0,7.5,2.4,9.6,5.7
		C236.6,16.7,233.7,22.9,231.1,30.6z"/>
	<path class="st0" d="M304.7,76.3c-10.5,0-17.4-8.4-17.4-20.7c-0.1-9.6,5-19.9,14.4-19.9c9.1,0,5.2,11.9,13,11.9
		c3,0,5.6-2.5,5.6-5.6c0-5.4-7.5-10.7-18.3-10.7c-16.5,0-26.3,13.5-26.3,27.8c0,14,8.6,26.1,24.4,26.1c10.5,0,19.7-6.6,22.4-16.4
		l-2.6-1.6C317.4,71.7,312,76.3,304.7,76.3z"/>
	<path class="st0" d="M337.4,19.8c4.1,0,7.4-3.3,7.4-7.4c0-4.2-3.3-7.4-7.4-7.4c-4.2,0-7.5,3.2-7.5,7.4
		C329.9,16.5,333.2,19.8,337.4,19.8z"/>
	<path class="st0" d="M343.8,74.4v-43c-6.2,0.7-15.1,2.9-18.9,4.5v2.8l7.6,2.1v33.7c0,2.6-1,4.5-3.9,4.8l-3.4,0.4v4h25.7v-4
		l-3.4-0.4C344.7,78.9,343.8,77,343.8,74.4z"/>
	<path class="st0" d="M382.8,76.3c-10.2,0-17.5-8.6-17.5-20.2c0-1,0.1-2.2,0.2-3.5l20.5,0.7c7.5,0.3,11.8-0.1,14.5-0.9
		c0.2-12.4-7.9-21-21-21c-16.2,0-25.4,13.8-25.4,27.4c0,14.3,9,26.5,24.3,26.5c10.6,0,19.6-6.6,22.3-16.4l-2.6-1.6
		C395.7,71.8,390,76.3,382.8,76.3z M378.9,36c7.3,0,9.9,5.7,9.8,12l-22.6,0.3C367.1,41.9,371.9,36,378.9,36z"/>
	<path class="st0" d="M456.9,74.4V49.6c0-13.6-8.8-18.3-16.7-18.3c-6.3,0-12.7,3.4-16.8,9.1v-9.1c-6.2,0.7-15.1,2.9-18.8,4.5v2.8
		l7.5,2.1v33.7c0,2.6-0.9,4.5-3.9,4.8l-3.3,0.4v4h26.4v-4l-4.1-0.4c-2.9-0.3-3.9-2.2-3.9-4.8V44.2c3.2-3,7.3-4.7,11.2-4.7
		c7.6,0,11,5,11,13.2v21.7c0,2.6-0.9,4.5-3.9,4.8l-3.4,0.4v4H464v-4l-3.4-0.4C457.8,78.9,456.9,77,456.9,74.4z"/>
	<path class="st0" d="M498.9,77.3c-1.9,0.8-5,1.4-7.2,1.4c-8,0-9-4.2-9-11.3V37.9h15.7v-5h-15.7V17.5h-4.1
		c-2,7.6-5.9,14.6-14.7,16.4V38h7.5l-0.3,34c-0.1,9.4,5.2,13.3,13.2,13.3c6.1,0,12.9-2.2,15.7-4.4L498.9,77.3z"/>
</g>
</svg>
